<?xml version="1.0" encoding="UTF-8" standalone="no"?>
<!DOCTYPE svg PUBLIC "-//W3C//DTD SVG 1.1//EN"
 "http://www.w3.org/Graphics/SVG/1.1/DTD/svg11.dtd">
<!-- Generated by graphviz version 2.43.0 (0)
 -->
<!-- Title: net Pages: 1 -->
<svg width="901pt" height="492pt"
 viewBox="0.00 0.00 900.59 491.88" xmlns="http://www.w3.org/2000/svg" xmlns:xlink="http://www.w3.org/1999/xlink">
<g id="graph0" class="graph" transform="scale(1 1) rotate(0) translate(4 487.88)">
<title>net</title>
<polygon fill="white" stroke="transparent" points="-4,4 -4,-487.88 896.59,-487.88 896.59,4 -4,4"/>
<!-- 0 -->
<g id="node1" class="node">
<title>0</title>
<ellipse fill="none" stroke="black" cx="60.34" cy="-180.23" rx="57.69" ry="18"/>
<text text-anchor="middle" x="60.34" y="-176.53" font-family="Times,serif" font-size="14.00">Arlhausen</text>
</g>
<!-- 1 -->
<g id="node2" class="node">
<title>1</title>
<ellipse fill="none" stroke="black" cx="107.94" cy="-369.51" rx="51.99" ry="18"/>
<text text-anchor="middle" x="107.94" y="-365.81" font-family="Times,serif" font-size="14.00">Morbach</text>
</g>
<!-- 0&#45;&#45;1 -->
<g id="edge1" class="edge">
<title>0&#45;&#45;1</title>
<path fill="none" stroke="black" d="M64.91,-198.38C74,-234.56 94.3,-315.28 103.39,-351.42"/>
<text text-anchor="middle" x="93.65" y="-278.7" font-family="Times,serif" font-size="14.00">36</text>
</g>
<!-- 4 -->
<g id="node5" class="node">
<title>4</title>
<ellipse fill="none" stroke="black" cx="59.79" cy="-76.23" rx="59.59" ry="18"/>
<text text-anchor="middle" x="59.79" y="-72.53" font-family="Times,serif" font-size="14.00">Niedergau</text>
</g>
<!-- 0&#45;&#45;4 -->
<g id="edge11" class="edge">
<title>0&#45;&#45;4</title>
<path fill="none" stroke="black" d="M60.25,-162.11C60.15,-143.14 59.99,-113.51 59.89,-94.49"/>
<text text-anchor="middle" x="50.57" y="-132.1" font-family="Times,serif" font-size="14.00">22</text>
</g>
<!-- 5 -->
<g id="node6" class="node">
<title>5</title>
<ellipse fill="none" stroke="black" cx="172.99" cy="-43.43" rx="42.49" ry="18"/>
<text text-anchor="middle" x="172.99" y="-39.73" font-family="Times,serif" font-size="14.00">Delgar</text>
</g>
<!-- 0&#45;&#45;5 -->
<g id="edge2" class="edge">
<title>0&#45;&#45;5</title>
<path fill="none" stroke="black" d="M74.84,-162.62C96.59,-136.21 137.39,-86.65 158.9,-60.54"/>
<text text-anchor="middle" x="107.37" y="-115.38" font-family="Times,serif" font-size="14.00">36</text>
</g>
<!-- 7 -->
<g id="node8" class="node">
<title>7</title>
<ellipse fill="none" stroke="black" cx="223.14" cy="-199.77" rx="55.49" ry="18"/>
<text text-anchor="middle" x="223.14" y="-196.07" font-family="Times,serif" font-size="14.00">Budingen</text>
</g>
<!-- 0&#45;&#45;7 -->
<g id="edge9" class="edge">
<title>0&#45;&#45;7</title>
<path fill="none" stroke="black" d="M114.55,-186.74C132.77,-188.92 153.05,-191.36 171.1,-193.53"/>
<text text-anchor="middle" x="133.32" y="-193.93" font-family="Times,serif" font-size="14.00">69</text>
</g>
<!-- 2 -->
<g id="node3" class="node">
<title>2</title>
<ellipse fill="none" stroke="black" cx="127.99" cy="-465.88" rx="47.39" ry="18"/>
<text text-anchor="middle" x="127.99" y="-462.18" font-family="Times,serif" font-size="14.00">Chelzey</text>
</g>
<!-- 1&#45;&#45;2 -->
<g id="edge4" class="edge">
<title>1&#45;&#45;2</title>
<path fill="none" stroke="black" d="M111.71,-387.64C115.3,-404.87 120.66,-430.63 124.24,-447.84"/>
<text text-anchor="middle" x="108.47" y="-421.54" font-family="Times,serif" font-size="14.00">31</text>
</g>
<!-- 3 -->
<g id="node4" class="node">
<title>3</title>
<ellipse fill="none" stroke="black" cx="42.83" cy="-288.7" rx="27" ry="18"/>
<text text-anchor="middle" x="42.83" y="-285" font-family="Times,serif" font-size="14.00">X1</text>
</g>
<!-- 1&#45;&#45;3 -->
<g id="edge6" class="edge">
<title>1&#45;&#45;3</title>
<path fill="none" stroke="black" d="M93.81,-351.98C82.52,-337.96 66.81,-318.46 55.82,-304.83"/>
<text text-anchor="middle" x="65.32" y="-332.2" font-family="Times,serif" font-size="14.00">12</text>
</g>
<!-- 6 -->
<g id="node7" class="node">
<title>6</title>
<ellipse fill="none" stroke="black" cx="321.76" cy="-362.93" rx="46.59" ry="18"/>
<text text-anchor="middle" x="321.76" y="-359.23" font-family="Times,serif" font-size="14.00">Imstadt</text>
</g>
<!-- 1&#45;&#45;6 -->
<g id="edge3" class="edge">
<title>1&#45;&#45;6</title>
<path fill="none" stroke="black" d="M159.97,-367.91C195.08,-366.83 241.02,-365.42 274.97,-364.37"/>
<text text-anchor="middle" x="207.97" y="-369.94" font-family="Times,serif" font-size="14.00">43</text>
</g>
<!-- 2&#45;&#45;3 -->
<g id="edge7" class="edge">
<title>2&#45;&#45;3</title>
<path fill="none" stroke="black" d="M119.36,-447.92C102.91,-413.69 67.28,-339.57 51.11,-305.93"/>
<text text-anchor="middle" x="75.73" y="-380.72" font-family="Times,serif" font-size="14.00">23</text>
</g>
<!-- 2&#45;&#45;6 -->
<g id="edge5" class="edge">
<title>2&#45;&#45;6</title>
<path fill="none" stroke="black" d="M155.75,-451.13C192.59,-431.56 257.24,-397.21 294.05,-377.66"/>
<text text-anchor="middle" x="215.4" y="-418.2" font-family="Times,serif" font-size="14.00">40</text>
</g>
<!-- 3&#45;&#45;4 -->
<g id="edge8" class="edge">
<title>3&#45;&#45;4</title>
<path fill="none" stroke="black" d="M44.28,-270.59C47.48,-230.44 55.15,-134.4 58.35,-94.3"/>
<text text-anchor="middle" x="41.81" y="-186.24" font-family="Times,serif" font-size="14.00">29</text>
</g>
<!-- 3&#45;&#45;7 -->
<g id="edge10" class="edge">
<title>3&#45;&#45;7</title>
<path fill="none" stroke="black" d="M64.58,-277.97C96.52,-262.22 156.25,-232.76 192.58,-214.85"/>
<text text-anchor="middle" x="119.08" y="-250.21" font-family="Times,serif" font-size="14.00">26</text>
</g>
<!-- 4&#45;&#45;5 -->
<g id="edge12" class="edge">
<title>4&#45;&#45;5</title>
<path fill="none" stroke="black" d="M102.91,-63.74C114.41,-60.41 126.69,-56.85 137.71,-53.65"/>
<text text-anchor="middle" x="110.81" y="-47.5" font-family="Times,serif" font-size="14.00">20</text>
</g>
<!-- 8 -->
<g id="node9" class="node">
<title>8</title>
<ellipse fill="none" stroke="black" cx="283.72" cy="-32.54" rx="27" ry="18"/>
<text text-anchor="middle" x="283.72" y="-28.84" font-family="Times,serif" font-size="14.00">X2</text>
</g>
<!-- 4&#45;&#45;8 -->
<g id="edge15" class="edge">
<title>4&#45;&#45;8</title>
<path fill="none" stroke="black" d="M110.05,-66.42C155.83,-57.49 221.62,-44.65 257.66,-37.62"/>
<text text-anchor="middle" x="174.35" y="-55.82" font-family="Times,serif" font-size="14.00">30</text>
</g>
<!-- 5&#45;&#45;7 -->
<g id="edge13" class="edge">
<title>5&#45;&#45;7</title>
<path fill="none" stroke="black" d="M178.74,-61.37C188.36,-91.36 207.62,-151.39 217.3,-181.57"/>
<text text-anchor="middle" x="188.52" y="-125.27" font-family="Times,serif" font-size="14.00">64</text>
</g>
<!-- 9 -->
<g id="node10" class="node">
<title>9</title>
<ellipse fill="none" stroke="black" cx="408.26" cy="-18" rx="43.59" ry="18"/>
<text text-anchor="middle" x="408.26" y="-14.3" font-family="Times,serif" font-size="14.00">Lupera</text>
</g>
<!-- 5&#45;&#45;9 -->
<g id="edge14" class="edge">
<title>5&#45;&#45;9</title>
<path fill="none" stroke="black" d="M213.97,-39C256.49,-34.41 322.69,-27.25 365.76,-22.59"/>
<text text-anchor="middle" x="280.37" y="-34.6" font-family="Times,serif" font-size="14.00">95</text>
</g>
<!-- 6&#45;&#45;7 -->
<g id="edge18" class="edge">
<title>6&#45;&#45;7</title>
<path fill="none" stroke="black" d="M311.02,-345.16C292.05,-313.78 252.83,-248.89 233.87,-217.52"/>
<text text-anchor="middle" x="262.94" y="-285.14" font-family="Times,serif" font-size="14.00">34</text>
</g>
<!-- 10 -->
<g id="node11" class="node">
<title>10</title>
<ellipse fill="none" stroke="black" cx="451.45" cy="-210.97" rx="49.29" ry="18"/>
<text text-anchor="middle" x="451.45" y="-207.27" font-family="Times,serif" font-size="14.00">Hundorf</text>
</g>
<!-- 6&#45;&#45;10 -->
<g id="edge22" class="edge">
<title>6&#45;&#45;10</title>
<path fill="none" stroke="black" d="M336.39,-345.8C361.29,-316.61 411.67,-257.58 436.68,-228.28"/>
<text text-anchor="middle" x="377.03" y="-290.84" font-family="Times,serif" font-size="14.00">65</text>
</g>
<!-- 13 -->
<g id="node14" class="node">
<title>13</title>
<ellipse fill="none" stroke="black" cx="600.88" cy="-337.15" rx="57.69" ry="18"/>
<text text-anchor="middle" x="600.88" y="-333.45" font-family="Times,serif" font-size="14.00">Pappstadt</text>
</g>
<!-- 6&#45;&#45;13 -->
<g id="edge23" class="edge">
<title>6&#45;&#45;13</title>
<path fill="none" stroke="black" d="M367.54,-358.71C416.1,-354.22 492.86,-347.13 544.97,-342.32"/>
<text text-anchor="middle" x="446.75" y="-354.31" font-family="Times,serif" font-size="14.00">55</text>
</g>
<!-- 7&#45;&#45;8 -->
<g id="edge16" class="edge">
<title>7&#45;&#45;8</title>
<path fill="none" stroke="black" d="M229.62,-181.88C241.31,-149.6 265.79,-82.05 277.38,-50.05"/>
<text text-anchor="middle" x="244" y="-119.77" font-family="Times,serif" font-size="14.00">32</text>
</g>
<!-- 7&#45;&#45;10 -->
<g id="edge19" class="edge">
<title>7&#45;&#45;10</title>
<path fill="none" stroke="black" d="M277.82,-202.46C315.68,-204.31 365.65,-206.76 402.26,-208.56"/>
<text text-anchor="middle" x="330.54" y="-209.31" font-family="Times,serif" font-size="14.00">30</text>
</g>
<!-- 8&#45;&#45;9 -->
<g id="edge17" class="edge">
<title>8&#45;&#45;9</title>
<path fill="none" stroke="black" d="M310.44,-29.42C326.59,-27.53 347.54,-25.09 365.91,-22.94"/>
<text text-anchor="middle" x="328.68" y="-29.98" font-family="Times,serif" font-size="14.00">40</text>
</g>
<!-- 11 -->
<g id="node12" class="node">
<title>11</title>
<ellipse fill="none" stroke="black" cx="515.39" cy="-65.56" rx="27" ry="18"/>
<text text-anchor="middle" x="515.39" y="-61.86" font-family="Times,serif" font-size="14.00">X3</text>
</g>
<!-- 8&#45;&#45;11 -->
<g id="edge20" class="edge">
<title>8&#45;&#45;11</title>
<path fill="none" stroke="black" d="M310.3,-36.32C354.87,-42.68 444.17,-55.41 488.77,-61.76"/>
<text text-anchor="middle" x="390.03" y="-52.84" font-family="Times,serif" font-size="14.00">23</text>
</g>
<!-- 9&#45;&#45;10 -->
<g id="edge21" class="edge">
<title>9&#45;&#45;10</title>
<path fill="none" stroke="black" d="M412.32,-36.15C420.57,-73.03 439.21,-156.29 447.43,-193.01"/>
<text text-anchor="middle" x="415.87" y="-118.38" font-family="Times,serif" font-size="14.00">106</text>
</g>
<!-- 12 -->
<g id="node13" class="node">
<title>12</title>
<ellipse fill="none" stroke="black" cx="650.17" cy="-40.54" rx="48.19" ry="18"/>
<text text-anchor="middle" x="650.17" y="-36.84" font-family="Times,serif" font-size="14.00">Giwelau</text>
</g>
<!-- 9&#45;&#45;12 -->
<g id="edge26" class="edge">
<title>9&#45;&#45;12</title>
<path fill="none" stroke="black" d="M450.95,-21.98C493.68,-25.96 559.24,-32.07 603.36,-36.18"/>
<text text-anchor="middle" x="517.66" y="-32.88" font-family="Times,serif" font-size="14.00">58</text>
</g>
<!-- 10&#45;&#45;11 -->
<g id="edge25" class="edge">
<title>10&#45;&#45;11</title>
<path fill="none" stroke="black" d="M459.29,-193.14C471.62,-165.08 495.43,-110.95 507.68,-83.08"/>
<text text-anchor="middle" x="473.98" y="-141.91" font-family="Times,serif" font-size="14.00">29</text>
</g>
<!-- 10&#45;&#45;13 -->
<g id="edge24" class="edge">
<title>10&#45;&#45;13</title>
<path fill="none" stroke="black" d="M471.29,-227.73C499.71,-251.73 551.74,-295.66 580.47,-319.92"/>
<text text-anchor="middle" x="516.38" y="-277.62" font-family="Times,serif" font-size="14.00">34</text>
</g>
<!-- 14 -->
<g id="node15" class="node">
<title>14</title>
<ellipse fill="none" stroke="black" cx="653.66" cy="-184.87" rx="53.09" ry="18"/>
<text text-anchor="middle" x="653.66" y="-181.17" font-family="Times,serif" font-size="14.00">Krupsing</text>
</g>
<!-- 10&#45;&#45;14 -->
<g id="edge29" class="edge">
<title>10&#45;&#45;14</title>
<path fill="none" stroke="black" d="M498.09,-204.95C529.7,-200.87 571.43,-195.48 603.72,-191.32"/>
<text text-anchor="middle" x="541.4" y="-201.93" font-family="Times,serif" font-size="14.00">31</text>
</g>
<!-- 11&#45;&#45;12 -->
<g id="edge27" class="edge">
<title>11&#45;&#45;12</title>
<path fill="none" stroke="black" d="M541.69,-60.68C560.23,-57.23 585.48,-52.55 606.96,-48.56"/>
<text text-anchor="middle" x="564.82" y="-58.42" font-family="Times,serif" font-size="14.00">30</text>
</g>
<!-- 11&#45;&#45;14 -->
<g id="edge28" class="edge">
<title>11&#45;&#45;14</title>
<path fill="none" stroke="black" d="M532.07,-79.95C557.64,-102.01 606.44,-144.12 633.8,-167.73"/>
<text text-anchor="middle" x="573.43" y="-127.64" font-family="Times,serif" font-size="14.00">20</text>
</g>
<!-- 12&#45;&#45;14 -->
<g id="edge31" class="edge">
<title>12&#45;&#45;14</title>
<path fill="none" stroke="black" d="M650.61,-58.82C651.29,-86.58 652.56,-139.07 653.23,-166.74"/>
<text text-anchor="middle" x="642.42" y="-116.58" font-family="Times,serif" font-size="14.00">58</text>
</g>
<!-- 15 -->
<g id="node16" class="node">
<title>15</title>
<ellipse fill="none" stroke="black" cx="814.41" cy="-176.98" rx="57.69" ry="18"/>
<text text-anchor="middle" x="814.41" y="-173.28" font-family="Times,serif" font-size="14.00">Eindhofen</text>
</g>
<!-- 12&#45;&#45;15 -->
<g id="edge36" class="edge">
<title>12&#45;&#45;15</title>
<path fill="none" stroke="black" d="M669.98,-57C701.38,-83.08 762.26,-133.65 794.01,-160.04"/>
<text text-anchor="middle" x="722.5" y="-112.32" font-family="Times,serif" font-size="14.00">60</text>
</g>
<!-- 13&#45;&#45;14 -->
<g id="edge30" class="edge">
<title>13&#45;&#45;14</title>
<path fill="none" stroke="black" d="M607.14,-319.08C617.3,-289.78 637.26,-232.21 647.41,-202.91"/>
<text text-anchor="middle" x="617.78" y="-264.8" font-family="Times,serif" font-size="14.00">25</text>
</g>
<!-- 16 -->
<g id="node17" class="node">
<title>16</title>
<ellipse fill="none" stroke="black" cx="772.42" cy="-293.3" rx="57.69" ry="18"/>
<text text-anchor="middle" x="772.42" y="-289.6" font-family="Times,serif" font-size="14.00">Flughafen</text>
</g>
<!-- 13&#45;&#45;16 -->
<g id="edge32" class="edge">
<title>13&#45;&#45;16</title>
<path fill="none" stroke="black" d="M645.95,-325.63C671.16,-319.19 702.48,-311.18 727.65,-304.75"/>
<text text-anchor="middle" x="677.3" y="-318.99" font-family="Times,serif" font-size="14.00">57</text>
</g>
<!-- 17 -->
<g id="node18" class="node">
<title>17</title>
<ellipse fill="none" stroke="black" cx="828.9" cy="-361.29" rx="63.89" ry="18"/>
<text text-anchor="middle" x="828.9" y="-357.59" font-family="Times,serif" font-size="14.00">Oppenhaim</text>
</g>
<!-- 13&#45;&#45;17 -->
<g id="edge33" class="edge">
<title>13&#45;&#45;17</title>
<path fill="none" stroke="black" d="M655.79,-342.96C689.92,-346.58 733.81,-351.23 768.87,-354.94"/>
<text text-anchor="middle" x="702.83" y="-352.75" font-family="Times,serif" font-size="14.00">91</text>
</g>
<!-- 14&#45;&#45;15 -->
<g id="edge35" class="edge">
<title>14&#45;&#45;15</title>
<path fill="none" stroke="black" d="M706.74,-182.27C722.93,-181.47 740.79,-180.59 757.24,-179.79"/>
<text text-anchor="middle" x="722.49" y="-184.83" font-family="Times,serif" font-size="14.00">31</text>
</g>
<!-- 14&#45;&#45;16 -->
<g id="edge34" class="edge">
<title>14&#45;&#45;16</title>
<path fill="none" stroke="black" d="M672.22,-201.81C694.4,-222.07 731.31,-255.77 753.6,-276.12"/>
<text text-anchor="middle" x="703.41" y="-242.77" font-family="Times,serif" font-size="14.00">29</text>
</g>
<!-- 15&#45;&#45;16 -->
<g id="edge37" class="edge">
<title>15&#45;&#45;16</title>
<path fill="none" stroke="black" d="M807.94,-194.9C800.07,-216.7 786.87,-253.28 778.96,-275.17"/>
<text text-anchor="middle" x="783.95" y="-238.84" font-family="Times,serif" font-size="14.00">79</text>
</g>
<!-- 15&#45;&#45;17 -->
<g id="edge39" class="edge">
<title>15&#45;&#45;17</title>
<path fill="none" stroke="black" d="M815.83,-194.99C818.6,-230.23 824.7,-307.92 827.48,-343.21"/>
<text text-anchor="middle" x="807.65" y="-257.9" font-family="Times,serif" font-size="14.00">102</text>
</g>
<!-- 16&#45;&#45;17 -->
<g id="edge38" class="edge">
<title>16&#45;&#45;17</title>
<path fill="none" stroke="black" d="M786.96,-310.81C795.33,-320.89 805.81,-333.51 814.21,-343.61"/>
<text text-anchor="middle" x="791.08" y="-331.01" font-family="Times,serif" font-size="14.00">14</text>
</g>
</g>
</svg>
